<?xml version="1.0" encoding="UTF-8"?>
<svg xmlns="http://www.w3.org/2000/svg" xmlns:xlink="http://www.w3.org/1999/xlink" width="612pt" height="792pt" viewBox="0 0 612 792" version="1.1">
<g id="surface1">
<path style=" stroke:none;fill-rule:nonzero;fill:rgb(45.872498%,7.835388%,86.71875%);fill-opacity:1;" d="M 233.097656 424.292969 C 230.027344 424.292969 227.015625 423.765625 224.058594 422.714844 C 221.105469 421.660156 218.417969 420.046875 216 417.863281 L 221.238281 411.605469 C 223.082031 413.097656 224.972656 414.285156 226.910156 415.164063 C 228.847656 416.046875 230.910156 416.484375 233.214844 416.484375 C 235.058594 416.484375 236.433594 416.152344 237.449219 415.480469 C 238.464844 414.8125 238.972656 413.882813 238.972656 412.699219 L 238.972656 412.582031 C 238.972656 412.007813 238.867188 411.503906 238.65625 411.0625 C 238.445313 410.621094 238.046875 410.207031 237.449219 409.828125 C 236.847656 409.441406 236.019531 409.0625 234.964844 408.679688 C 233.910156 408.296875 232.636719 407.890625 230.949219 407.472656 C 228.90625 406.972656 227.0625 406.421875 225.402344 405.808594 C 223.753906 405.195313 222.34375 404.441406 221.191406 403.542969 C 220.039063 402.644531 219.136719 401.523438 218.503906 400.183594 C 217.871094 398.84375 217.554688 397.179688 217.554688 395.191406 L 217.554688 395.074219 C 217.554688 393.238281 217.898438 391.582031 218.582031 390.109375 C 219.273438 388.636719 220.230469 387.363281 221.46875 386.292969 C 222.707031 385.222656 224.195313 384.398438 225.910156 383.824219 C 227.628906 383.25 229.527344 382.964844 231.601563 382.964844 C 234.554688 382.964844 237.269531 383.402344 239.746094 384.285156 C 242.222656 385.164063 244.496094 386.425781 246.566406 388.070313 L 241.964844 394.730469 C 240.160156 393.507813 238.394531 392.539063 236.664063 391.832031 C 234.941406 391.125 233.269531 390.769531 231.539063 390.769531 C 229.8125 390.769531 228.519531 391.105469 227.65625 391.773438 C 226.792969 392.445313 226.359375 393.277344 226.359375 394.273438 L 226.359375 394.386719 C 226.359375 395.035156 226.484375 395.601563 226.734375 396.078125 C 226.984375 396.558594 227.433594 396.992188 228.085938 397.371094 C 228.746094 397.757813 229.640625 398.117188 230.773438 398.460938 C 231.914063 398.808594 233.289063 399.210938 235.015625 399.667969 C 237.058594 400.207031 238.882813 400.804688 240.476563 401.476563 C 242.066406 402.144531 243.421875 402.949219 244.515625 403.886719 C 245.609375 404.824219 246.441406 405.925781 247 407.1875 C 247.554688 408.449219 247.835938 409.960938 247.835938 411.722656 L 247.835938 411.835938 C 247.835938 413.824219 247.46875 415.597656 246.75 417.144531 C 246.019531 418.695313 245.015625 419.996094 243.71875 421.050781 C 242.421875 422.101563 240.867188 422.90625 239.074219 423.460938 C 237.28125 424.015625 235.285156 424.292969 233.097656 424.292969 "/>
<path style=" stroke:none;fill-rule:nonzero;fill:rgb(45.872498%,7.835388%,86.71875%);fill-opacity:1;" d="M 267.089844 424.390625 C 264.792969 424.390625 262.589844 423.96875 260.617188 423.128906 C 258.644531 422.285156 256.949219 421.148438 255.535156 419.710938 C 254.117188 418.277344 253.007813 416.59375 252.203125 414.660156 C 251.398438 412.730469 250.996094 410.671875 250.996094 408.492188 L 250.996094 408.375 C 250.996094 406.195313 251.398438 404.128906 252.203125 402.175781 C 253.007813 400.226563 254.117188 398.523438 255.535156 397.066406 C 256.949219 395.613281 258.644531 394.464844 260.617188 393.625 C 262.589844 392.78125 264.832031 392.359375 267.207031 392.359375 C 270.117188 392.359375 272.527344 392.820313 274.441406 393.738281 C 276.355469 394.65625 278.039063 395.921875 279.496094 397.527344 L 274.15625 403.265625 C 273.160156 402.234375 272.136719 401.410156 271.082031 400.800781 C 270.03125 400.1875 268.71875 399.878906 267.148438 399.878906 C 266.039063 399.878906 265.035156 400.101563 264.132813 400.539063 C 263.234375 400.980469 262.449219 401.582031 261.777344 402.347656 C 261.109375 403.113281 260.59375 404.003906 260.230469 405.019531 C 259.863281 406.03125 259.683594 407.113281 259.683594 408.261719 L 259.683594 408.375 C 259.683594 409.5625 259.863281 410.671875 260.230469 411.703125 C 260.59375 412.738281 261.117188 413.636719 261.808594 414.402344 C 262.496094 415.167969 263.320313 415.769531 264.277344 416.210938 C 265.234375 416.652344 266.308594 416.871094 267.492188 416.871094 C 268.949219 416.871094 270.222656 416.574219 271.3125 415.980469 C 272.402344 415.390625 273.484375 414.59375 274.558594 413.601563 L 279.667969 418.765625 C 278.175781 420.410156 276.472656 421.761719 274.558594 422.8125 C 272.644531 423.863281 270.152344 424.390625 267.089844 424.390625 "/>
<path style=" stroke:none;fill-rule:nonzero;fill:rgb(45.872498%,7.835388%,86.71875%);fill-opacity:1;" d="M 298.007813 416.871094 C 299.269531 416.871094 300.390625 416.652344 301.363281 416.210938 C 302.339844 415.769531 303.171875 415.167969 303.863281 414.402344 C 304.550781 413.636719 305.078125 412.746094 305.441406 411.734375 C 305.804688 410.71875 305.984375 409.640625 305.984375 408.492188 L 305.984375 408.375 C 305.984375 407.226563 305.796875 406.148438 305.410156 405.132813 C 305.027344 404.117188 304.472656 403.21875 303.746094 402.433594 C 303.019531 401.648438 302.160156 401.027344 301.164063 400.570313 C 300.171875 400.109375 299.078125 399.878906 297.894531 399.878906 C 296.628906 399.878906 295.511719 400.101563 294.535156 400.539063 C 293.558594 400.980469 292.726563 401.582031 292.039063 402.347656 C 291.347656 403.113281 290.824219 404.003906 290.460938 405.019531 C 290.097656 406.03125 289.914063 407.113281 289.914063 408.261719 L 289.914063 408.375 C 289.914063 409.523438 290.105469 410.605469 290.488281 411.617188 C 290.871094 412.632813 291.425781 413.53125 292.152344 414.316406 C 292.878906 415.101563 293.730469 415.722656 294.707031 416.183594 C 295.683594 416.640625 296.78125 416.871094 298.007813 416.871094 Z M 297.894531 424.390625 C 295.519531 424.390625 293.320313 423.980469 291.289063 423.15625 C 289.261719 422.335938 287.511719 421.203125 286.039063 419.769531 C 284.566406 418.335938 283.40625 416.652344 282.566406 414.71875 C 281.722656 412.785156 281.304688 410.710938 281.304688 408.492188 L 281.304688 408.375 C 281.304688 406.15625 281.722656 404.078125 282.566406 402.148438 C 283.40625 400.214844 284.574219 398.523438 286.066406 397.066406 C 287.5625 395.613281 289.320313 394.464844 291.347656 393.625 C 293.378906 392.78125 295.597656 392.359375 298.007813 392.359375 C 300.378906 392.359375 302.578125 392.773438 304.609375 393.59375 C 306.636719 394.417969 308.386719 395.546875 309.859375 396.980469 C 311.335938 398.417969 312.492188 400.101563 313.335938 402.03125 C 314.175781 403.964844 314.597656 406.042969 314.597656 408.261719 L 314.597656 408.375 C 314.597656 410.59375 314.175781 412.671875 313.335938 414.605469 C 312.492188 416.535156 311.324219 418.230469 309.832031 419.683594 C 308.339844 421.136719 306.578125 422.285156 304.550781 423.128906 C 302.523438 423.96875 300.304688 424.390625 297.894531 424.390625 "/>
<path style=" stroke:none;fill-rule:nonzero;fill:rgb(45.872498%,7.835388%,86.71875%);fill-opacity:1;" d="M 328.449219 424.277344 C 325.121094 424.277344 322.546875 423.261719 320.730469 421.234375 C 318.910156 419.203125 318.003906 416.410156 318.003906 412.851563 L 318.003906 392.933594 L 326.726563 392.933594 L 326.726563 410.058594 C 326.726563 412.117188 327.1875 413.675781 328.105469 414.71875 C 329.023438 415.769531 330.324219 416.296875 332.007813 416.296875 C 333.691406 416.296875 335.023438 415.769531 335.996094 414.71875 C 336.972656 413.675781 337.460938 412.117188 337.460938 410.058594 L 337.460938 392.933594 L 346.1875 392.933594 L 346.1875 423.703125 L 337.460938 423.703125 L 337.460938 419.300781 C 336.964844 419.960938 336.417969 420.582031 335.824219 421.1875 C 335.234375 421.777344 334.574219 422.304688 333.847656 422.773438 C 333.117188 423.234375 332.316406 423.597656 331.433594 423.875 C 330.554688 424.140625 329.558594 424.277344 328.449219 424.277344 "/>
<path style=" stroke:none;fill-rule:nonzero;fill:rgb(45.872498%,7.835388%,86.71875%);fill-opacity:1;" d="M 360.15625 424.21875 C 358.816406 424.21875 357.601563 424.074219 356.511719 423.789063 C 355.421875 423.503906 354.484375 422.992188 353.699219 422.265625 C 352.914063 421.539063 352.304688 420.59375 351.863281 419.425781 C 351.421875 418.257813 351.203125 416.777344 351.203125 414.976563 L 351.203125 385.070313 L 359.929688 385.070313 L 359.929688 392.933594 L 367.160156 392.933594 L 367.160156 400.398438 L 359.929688 400.398438 L 359.929688 413.589844 C 359.929688 415.589844 360.867188 416.585938 362.742188 416.585938 C 364.269531 416.585938 365.707031 416.203125 367.046875 415.4375 L 367.046875 422.4375 C 366.128906 422.976563 365.113281 423.40625 364.003906 423.730469 C 362.894531 424.054688 361.613281 424.21875 360.15625 424.21875 "/>
<path style=" stroke:none;fill-rule:nonzero;fill:rgb(45.872498%,7.835388%,86.71875%);fill-opacity:1;" d="M 384.203125 424.277344 C 382.019531 424.277344 379.785156 423.902344 377.503906 423.15625 C 375.21875 422.410156 373.042969 421.234375 370.972656 419.628906 L 374.710938 413.886719 C 376.398438 415.109375 378.078125 416.027344 379.746094 416.640625 C 381.414063 417.253906 382.976563 417.558594 384.433594 417.558594 C 385.699219 417.558594 386.632813 417.351563 387.226563 416.929688 C 387.820313 416.507813 388.117188 415.953125 388.117188 415.265625 L 388.117188 415.148438 C 388.117188 414.691406 387.945313 414.289063 387.601563 413.945313 C 387.253906 413.601563 386.785156 413.304688 386.191406 413.054688 C 385.59375 412.804688 384.914063 412.566406 384.148438 412.335938 C 383.378906 412.105469 382.574219 411.859375 381.730469 411.589844 C 380.65625 411.285156 379.574219 410.910156 378.480469 410.472656 C 377.386719 410.03125 376.398438 409.457031 375.515625 408.75 C 374.632813 408.039063 373.914063 407.171875 373.359375 406.136719 C 372.800781 405.105469 372.523438 403.839844 372.523438 402.347656 L 372.523438 402.234375 C 372.523438 400.664063 372.820313 399.277344 373.414063 398.070313 C 374.011719 396.867188 374.816406 395.84375 375.832031 395 C 376.847656 394.160156 378.039063 393.527344 379.398438 393.105469 C 380.761719 392.6875 382.230469 392.476563 383.800781 392.476563 C 385.757813 392.476563 387.742188 392.789063 389.757813 393.421875 C 391.769531 394.054688 393.621094 394.925781 395.308594 396.035156 L 391.972656 402.0625 C 390.4375 401.183594 388.941406 400.484375 387.484375 399.96875 C 386.027344 399.449219 384.742188 399.191406 383.628906 399.191406 C 382.554688 399.191406 381.75 399.394531 381.214844 399.796875 C 380.675781 400.195313 380.40625 400.703125 380.40625 401.316406 L 380.40625 401.429688 C 380.40625 401.851563 380.578125 402.226563 380.925781 402.550781 C 381.269531 402.875 381.730469 403.179688 382.304688 403.46875 C 382.882813 403.753906 383.542969 404.03125 384.289063 404.300781 C 385.039063 404.566406 385.835938 404.835938 386.679688 405.105469 C 387.753906 405.449219 388.847656 405.859375 389.960938 406.339844 C 391.070313 406.816406 392.066406 407.398438 392.949219 408.089844 C 393.832031 408.777344 394.5625 409.621094 395.136719 410.613281 C 395.710938 411.609375 396 412.816406 396 414.230469 L 396 414.347656 C 396 416.066406 395.703125 417.550781 395.109375 418.792969 C 394.515625 420.039063 393.679688 421.0625 392.605469 421.863281 C 391.53125 422.667969 390.273438 423.269531 388.835938 423.671875 C 387.398438 424.074219 385.855469 424.277344 384.203125 424.277344 "/>
<path style=" stroke:none;fill-rule:nonzero;fill:rgb(45.872498%,7.835388%,86.71875%);fill-opacity:1;" d="M 293.347656 362.117188 C 295.875 358.769531 297.273438 355.949219 297.859375 352.847656 L 302.578125 352.847656 C 302.015625 356.238281 300.859375 359.472656 298.816406 362.5625 C 300.589844 365.410156 303.136719 367.5625 305.980469 369.148438 C 308.828125 367.5625 311.371094 365.410156 313.144531 362.5625 C 311.105469 359.472656 309.945313 356.238281 309.386719 352.847656 L 314.101563 352.847656 C 314.6875 355.949219 316.089844 358.769531 318.613281 362.117188 C 316.609375 367.269531 311.414063 372.132813 305.980469 374.269531 C 300.550781 372.132813 295.351563 367.269531 293.347656 362.117188 Z M 331.796875 344.597656 L 280.164063 344.597656 L 280.164063 348.941406 L 331.796875 348.941406 Z M 350.269531 335.449219 C 351.972656 328.808594 347.9375 320.59375 339.882813 318.816406 C 327.742188 316.148438 319.492188 329.636719 318.375 340.679688 L 322.988281 340.679688 C 323.871094 333.285156 329.9375 321.320313 338.945313 323.300781 C 344.535156 324.53125 346.757813 330.335938 345.738281 334.414063 Z M 313.953125 340.679688 C 314.847656 331.828125 321.875 324.433594 321.824219 315.007813 C 321.789063 308.832031 318.480469 304.308594 315.148438 300.992188 C 312.117188 297.980469 309.371094 296.855469 305.980469 292.847656 C 302.59375 296.855469 299.847656 297.980469 296.8125 300.992188 C 293.480469 304.308594 290.171875 308.832031 290.140625 315.007813 C 290.089844 324.433594 297.117188 331.828125 298.011719 340.679688 L 302.675781 340.679688 L 302.664063 340.5625 C 301.835938 330.746094 294.878906 323.3125 294.785156 315.136719 C 295.679688 305.726563 301.195313 304.414063 305.980469 299.390625 C 310.769531 304.414063 316.285156 305.726563 317.175781 315.136719 C 317.089844 323.3125 310.128906 330.746094 309.300781 340.5625 L 309.289063 340.679688 Z M 261.691406 335.449219 C 259.992188 328.808594 264.027344 320.59375 272.078125 318.816406 C 284.222656 316.148438 292.472656 329.636719 293.589844 340.679688 L 288.976563 340.679688 C 288.089844 333.285156 282.027344 321.320313 273.019531 323.300781 C 267.429688 324.53125 265.207031 330.335938 266.222656 334.414063 L 261.691406 335.449219 "/>
<path style=" stroke:none;fill-rule:nonzero;fill:rgb(45.872498%,7.835388%,86.71875%);fill-opacity:1;" d="M 226.679688 491.945313 C 224.761719 491.945313 222.882813 491.617188 221.035156 490.960938 C 219.1875 490.304688 217.511719 489.292969 216 487.929688 L 219.273438 484.023438 C 220.421875 484.953125 221.605469 485.695313 222.816406 486.246094 C 224.027344 486.796875 225.316406 487.070313 226.753906 487.070313 C 227.90625 487.070313 228.765625 486.859375 229.398438 486.441406 C 230.035156 486.023438 230.351563 485.445313 230.351563 484.703125 L 230.351563 484.632813 C 230.351563 484.273438 230.285156 483.957031 230.152344 483.683594 C 230.023438 483.40625 229.769531 483.148438 229.398438 482.910156 C 229.023438 482.671875 228.503906 482.433594 227.847656 482.195313 C 227.1875 481.953125 226.394531 481.699219 225.339844 481.441406 C 224.0625 481.128906 222.910156 480.78125 221.875 480.402344 C 220.84375 480.019531 219.960938 479.546875 219.242188 478.984375 C 218.523438 478.421875 217.960938 477.722656 217.5625 476.886719 C 217.167969 476.050781 216.972656 475.011719 216.972656 473.765625 L 216.972656 473.695313 C 216.972656 472.546875 217.1875 471.515625 217.613281 470.59375 C 218.042969 469.671875 218.644531 468.878906 219.417969 468.210938 C 220.1875 467.539063 221.117188 467.027344 222.191406 466.667969 C 223.265625 466.308594 224.449219 466.128906 225.746094 466.128906 C 227.59375 466.128906 229.289063 466.402344 230.835938 466.953125 C 232.382813 467.503906 233.800781 468.292969 235.097656 469.320313 L 232.21875 473.480469 C 231.09375 472.714844 229.988281 472.113281 228.910156 471.667969 C 227.832031 471.226563 226.785156 471.007813 225.707031 471.007813 C 224.628906 471.007813 223.820313 471.214844 223.28125 471.632813 C 222.742188 472.050781 222.472656 472.570313 222.472656 473.191406 L 222.472656 473.265625 C 222.472656 473.671875 222.550781 474.023438 222.703125 474.324219 C 222.859375 474.621094 223.144531 474.890625 223.550781 475.128906 C 223.964844 475.371094 224.519531 475.597656 225.230469 475.8125 C 225.941406 476.027344 226.800781 476.277344 227.878906 476.5625 C 229.15625 476.898438 230.296875 477.273438 231.289063 477.691406 C 232.285156 478.113281 233.128906 478.613281 233.8125 479.199219 C 234.496094 479.785156 235.019531 480.472656 235.367188 481.261719 C 235.714844 482.050781 235.886719 482.996094 235.886719 484.09375 L 235.886719 484.164063 C 235.886719 485.410156 235.660156 486.515625 235.210938 487.484375 C 234.753906 488.449219 234.125 489.265625 233.316406 489.921875 C 232.507813 490.578125 231.535156 491.078125 230.414063 491.425781 C 229.292969 491.773438 228.046875 491.945313 226.679688 491.945313 "/>
<path style=" stroke:none;fill-rule:nonzero;fill:rgb(45.872498%,7.835388%,86.71875%);fill-opacity:1;" d="M 247.914063 492.007813 C 246.480469 492.007813 245.105469 491.746094 243.871094 491.21875 C 242.640625 490.695313 241.582031 489.980469 240.695313 489.085938 C 239.8125 488.1875 239.117188 487.136719 238.617188 485.929688 C 238.113281 484.722656 237.863281 483.4375 237.863281 482.074219 L 237.863281 482.003906 C 237.863281 480.640625 238.113281 479.351563 238.617188 478.132813 C 239.117188 476.910156 239.8125 475.847656 240.695313 474.941406 C 241.582031 474.03125 242.640625 473.3125 243.871094 472.789063 C 245.105469 472.261719 246.503906 472 247.988281 472 C 249.804688 472 251.3125 472.285156 252.507813 472.859375 C 253.703125 473.433594 254.757813 474.222656 255.664063 475.226563 L 252.328125 478.8125 C 251.707031 478.167969 251.066406 477.652344 250.410156 477.269531 C 249.753906 476.886719 248.933594 476.695313 247.953125 476.695313 C 247.257813 476.695313 246.632813 476.835938 246.070313 477.109375 C 245.507813 477.382813 245.015625 477.761719 244.597656 478.238281 C 244.179688 478.71875 243.855469 479.273438 243.628906 479.90625 C 243.402344 480.539063 243.289063 481.214844 243.289063 481.933594 L 243.289063 482.003906 C 243.289063 482.746094 243.402344 483.4375 243.628906 484.085938 C 243.855469 484.730469 244.1875 485.289063 244.617188 485.769531 C 245.046875 486.246094 245.5625 486.621094 246.160156 486.898438 C 246.757813 487.171875 247.425781 487.3125 248.167969 487.3125 C 249.078125 487.3125 249.871094 487.125 250.554688 486.753906 C 251.234375 486.386719 251.910156 485.890625 252.578125 485.265625 L 255.773438 488.492188 C 254.839844 489.523438 253.777344 490.363281 252.578125 491.023438 C 251.386719 491.679688 249.828125 492.007813 247.914063 492.007813 "/>
<path style=" stroke:none;fill-rule:nonzero;fill:rgb(45.872498%,7.835388%,86.71875%);fill-opacity:1;" d="M 267.230469 487.3125 C 268.019531 487.3125 268.71875 487.171875 269.328125 486.898438 C 269.9375 486.621094 270.457031 486.246094 270.886719 485.769531 C 271.316406 485.289063 271.644531 484.734375 271.871094 484.101563 C 272.101563 483.46875 272.214844 482.792969 272.214844 482.074219 L 272.214844 482.003906 C 272.214844 481.285156 272.09375 480.609375 271.855469 479.976563 C 271.617188 479.34375 271.269531 478.78125 270.816406 478.292969 C 270.359375 477.804688 269.824219 477.414063 269.203125 477.128906 C 268.578125 476.839844 267.898438 476.695313 267.15625 476.695313 C 266.367188 476.695313 265.671875 476.835938 265.058594 477.109375 C 264.449219 477.382813 263.929688 477.761719 263.5 478.238281 C 263.070313 478.71875 262.742188 479.273438 262.515625 479.90625 C 262.285156 480.539063 262.171875 481.214844 262.171875 481.933594 L 262.171875 482.003906 C 262.171875 482.722656 262.292969 483.394531 262.53125 484.03125 C 262.769531 484.664063 263.117188 485.226563 263.570313 485.714844 C 264.027344 486.203125 264.558594 486.59375 265.167969 486.882813 C 265.777344 487.167969 266.464844 487.3125 267.230469 487.3125 Z M 267.15625 492.007813 C 265.675781 492.007813 264.300781 491.753906 263.035156 491.238281 C 261.765625 490.722656 260.671875 490.019531 259.753906 489.121094 C 258.832031 488.226563 258.109375 487.171875 257.585938 485.964844 C 257.058594 484.757813 256.796875 483.460938 256.796875 482.074219 L 256.796875 482.003906 C 256.796875 480.617188 257.058594 479.320313 257.585938 478.113281 C 258.109375 476.90625 258.839844 475.847656 259.769531 474.941406 C 260.703125 474.03125 261.804688 473.3125 263.070313 472.789063 C 264.335938 472.261719 265.722656 472 267.230469 472 C 268.710938 472 270.085938 472.257813 271.351563 472.769531 C 272.621094 473.285156 273.714844 473.988281 274.632813 474.886719 C 275.554688 475.78125 276.277344 476.835938 276.804688 478.042969 C 277.328125 479.25 277.59375 480.546875 277.59375 481.933594 L 277.59375 482.003906 C 277.59375 483.390625 277.328125 484.6875 276.804688 485.894531 C 276.277344 487.101563 275.546875 488.160156 274.617188 489.066406 C 273.683594 489.976563 272.585938 490.695313 271.316406 491.21875 C 270.050781 491.746094 268.664063 492.007813 267.15625 492.007813 "/>
<path style=" stroke:none;fill-rule:nonzero;fill:rgb(45.872498%,7.835388%,86.71875%);fill-opacity:1;" d="M 286.246094 491.9375 C 284.167969 491.9375 282.558594 491.304688 281.421875 490.035156 C 280.289063 488.769531 279.722656 487.023438 279.722656 484.800781 L 279.722656 472.359375 L 285.171875 472.359375 L 285.171875 483.054688 C 285.171875 484.339844 285.457031 485.316406 286.03125 485.964844 C 286.605469 486.621094 287.417969 486.953125 288.46875 486.953125 C 289.519531 486.953125 290.351563 486.621094 290.960938 485.964844 C 291.570313 485.316406 291.878906 484.339844 291.878906 483.054688 L 291.878906 472.359375 L 297.328125 472.359375 L 297.328125 491.578125 L 291.878906 491.578125 L 291.878906 488.828125 C 291.566406 489.242188 291.226563 489.628906 290.855469 490.007813 C 290.484375 490.378906 290.070313 490.703125 289.617188 490.996094 C 289.164063 491.285156 288.660156 491.511719 288.109375 491.6875 C 287.5625 491.851563 286.941406 491.9375 286.246094 491.9375 "/>
<path style=" stroke:none;fill-rule:nonzero;fill:rgb(45.872498%,7.835388%,86.71875%);fill-opacity:1;" d="M 306.054688 491.902344 C 305.21875 491.902344 304.460938 491.8125 303.777344 491.632813 C 303.097656 491.453125 302.511719 491.136719 302.019531 490.683594 C 301.53125 490.226563 301.148438 489.636719 300.871094 488.90625 C 300.597656 488.179688 300.460938 487.25 300.460938 486.128906 L 300.460938 467.445313 L 305.910156 467.445313 L 305.910156 472.359375 L 310.429688 472.359375 L 310.429688 477.019531 L 305.910156 477.019531 L 305.910156 485.261719 C 305.910156 486.511719 306.496094 487.132813 307.667969 487.132813 C 308.625 487.132813 309.519531 486.894531 310.355469 486.414063 L 310.355469 490.789063 C 309.785156 491.125 309.148438 491.394531 308.457031 491.597656 C 307.761719 491.800781 306.964844 491.902344 306.054688 491.902344 "/>
<path style=" stroke:none;fill-rule:nonzero;fill:rgb(45.872498%,7.835388%,86.71875%);fill-opacity:1;" d="M 321.074219 491.9375 C 319.710938 491.9375 318.3125 491.703125 316.890625 491.238281 C 315.464844 490.769531 314.101563 490.035156 312.808594 489.03125 L 315.144531 485.445313 C 316.199219 486.210938 317.246094 486.785156 318.289063 487.167969 C 319.332031 487.550781 320.308594 487.742188 321.21875 487.742188 C 322.011719 487.742188 322.59375 487.609375 322.964844 487.347656 C 323.335938 487.085938 323.519531 486.738281 323.519531 486.308594 L 323.519531 486.234375 C 323.519531 485.949219 323.414063 485.695313 323.195313 485.480469 C 322.980469 485.265625 322.6875 485.082031 322.316406 484.925781 C 321.945313 484.769531 321.519531 484.621094 321.039063 484.476563 C 320.5625 484.335938 320.058594 484.179688 319.53125 484.011719 C 318.859375 483.820313 318.183594 483.585938 317.5 483.3125 C 316.816406 483.039063 316.199219 482.679688 315.648438 482.238281 C 315.097656 481.796875 314.648438 481.25 314.300781 480.605469 C 313.953125 479.960938 313.777344 479.171875 313.777344 478.238281 L 313.777344 478.167969 C 313.777344 477.1875 313.964844 476.320313 314.335938 475.566406 C 314.707031 474.8125 315.210938 474.175781 315.847656 473.648438 C 316.480469 473.121094 317.222656 472.730469 318.074219 472.464844 C 318.925781 472.203125 319.84375 472.070313 320.824219 472.070313 C 322.046875 472.070313 323.285156 472.269531 324.546875 472.664063 C 325.804688 473.058594 326.960938 473.601563 328.011719 474.296875 L 325.929688 478.058594 C 324.96875 477.511719 324.035156 477.074219 323.125 476.75 C 322.214844 476.429688 321.410156 476.265625 320.71875 476.265625 C 320.046875 476.265625 319.542969 476.390625 319.207031 476.644531 C 318.871094 476.894531 318.703125 477.210938 318.703125 477.59375 L 318.703125 477.664063 C 318.703125 477.929688 318.8125 478.160156 319.027344 478.363281 C 319.242188 478.566406 319.53125 478.757813 319.890625 478.9375 C 320.25 479.117188 320.664063 479.289063 321.128906 479.457031 C 321.597656 479.625 322.09375 479.792969 322.621094 479.960938 C 323.292969 480.175781 323.976563 480.433594 324.671875 480.730469 C 325.363281 481.03125 325.988281 481.394531 326.539063 481.824219 C 327.089844 482.253906 327.546875 482.78125 327.90625 483.402344 C 328.265625 484.023438 328.445313 484.777344 328.445313 485.660156 L 328.445313 485.734375 C 328.445313 486.808594 328.257813 487.734375 327.886719 488.511719 C 327.515625 489.289063 326.996094 489.929688 326.324219 490.429688 C 325.652344 490.933594 324.867188 491.308594 323.96875 491.558594 C 323.070313 491.8125 322.105469 491.9375 321.074219 491.9375 "/>
<path style=" stroke:none;fill-rule:nonzero;fill:rgb(45.872498%,7.835388%,86.71875%);fill-opacity:1;" d="M 360.136719 491.546875 C 361.71875 489.453125 362.59375 487.6875 362.960938 485.746094 L 365.914063 485.746094 C 365.5625 487.867188 364.835938 489.894531 363.558594 491.828125 C 364.667969 493.609375 366.261719 494.957031 368.042969 495.949219 C 369.824219 494.957031 371.414063 493.609375 372.527344 491.828125 C 371.246094 489.894531 370.523438 487.867188 370.171875 485.746094 L 373.125 485.746094 C 373.492188 487.6875 374.367188 489.453125 375.949219 491.546875 C 374.695313 494.773438 371.441406 497.8125 368.042969 499.152344 C 364.644531 497.8125 361.390625 494.773438 360.136719 491.546875 Z M 384.199219 480.582031 L 351.886719 480.582031 L 351.886719 483.304688 L 384.199219 483.304688 Z M 395.761719 474.855469 C 396.824219 470.703125 394.300781 465.558594 389.257813 464.449219 C 381.660156 462.777344 376.496094 471.222656 375.796875 478.128906 L 378.683594 478.128906 C 379.238281 473.503906 383.035156 466.015625 388.671875 467.257813 C 392.171875 468.027344 393.558594 471.660156 392.925781 474.210938 Z M 373.03125 478.128906 C 373.589844 472.59375 377.988281 467.964844 377.957031 462.066406 C 377.9375 458.199219 375.863281 455.367188 373.78125 453.296875 C 371.882813 451.40625 370.164063 450.703125 368.042969 448.195313 C 365.921875 450.703125 364.203125 451.40625 362.304688 453.296875 C 360.21875 455.367188 358.148438 458.199219 358.128906 462.066406 C 358.097656 467.964844 362.496094 472.59375 363.054688 478.128906 L 365.972656 478.128906 L 365.964844 478.058594 C 365.445313 471.914063 361.09375 467.265625 361.035156 462.148438 C 361.59375 456.257813 365.046875 455.4375 368.042969 452.292969 C 371.039063 455.4375 374.492188 456.257813 375.050781 462.148438 C 374.992188 467.265625 370.640625 471.914063 370.117188 478.058594 L 370.113281 478.128906 Z M 340.324219 474.855469 C 339.261719 470.703125 341.785156 465.558594 346.824219 464.449219 C 354.425781 462.777344 359.589844 471.222656 360.289063 478.128906 L 357.398438 478.128906 C 356.847656 473.503906 353.050781 466.015625 347.414063 467.257813 C 343.914063 468.027344 342.523438 471.660156 343.160156 474.210938 L 340.324219 474.855469 "/>
</g>
</svg>
